<?xml version="1.0" standalone="no"?>
<!DOCTYPE svg PUBLIC "-//W3C//DTD SVG 20010904//EN"
 "http://www.w3.org/TR/2001/REC-SVG-20010904/DTD/svg10.dtd">
<svg version="1.0" xmlns="http://www.w3.org/2000/svg"
 width="500.000000pt" height="500.000000pt" viewBox="0 0 500.000000 500.000000"
 preserveAspectRatio="xMidYMid meet">
<metadata>
Created by potrace 1.11, written by Peter Selinger 2001-2013
</metadata>
<g transform="translate(0.000000,500.000000) scale(0.100000,-0.100000)"
fill="#000000" stroke="none">
<path d="M2350 4708 c-315 -77 -519 -385 -464 -703 44 -252 221 -438 480 -505
49 -12 159 -14 229 -5 53 8 156 43 208 72 118 67 240 213 280 338 120 371 -98
737 -485 815 -74 15 -156 11 -248 -12z"/>
<path d="M1540 3700 c-70 -19 -158 -94 -188 -160 -26 -57 -22 -228 7 -310 69
-195 224 -427 394 -589 27 -25 54 -49 61 -53 10 -5 80 44 316 222 117 88 272
200 302 219 48 29 87 29 134 2 31 -19 342 -246 394 -288 8 -7 60 -46 115 -87
85 -64 102 -72 117 -62 44 31 145 134 218 223 100 121 95 114 110 144 7 13 16
26 20 29 18 12 99 192 114 254 17 66 22 155 12 205 -18 87 -91 171 -169 194
-138 43 -239 -4 -538 -249 -134 -110 -152 -124 -221 -166 -88 -54 -162 -79
-246 -84 -134 -6 -220 45 -452 269 -171 166 -267 240 -350 271 -52 19 -114 26
-150 16z"/>
<path d="M2418 2622 c-43 -31 -171 -127 -286 -212 l-209 -155 1 -315 1 -315
575 0 575 0 2 315 2 315 -90 65 c-49 36 -100 73 -112 82 -76 60 -372 278 -377
278 -3 0 -40 -26 -82 -58z"/>
<path d="M863 2431 c-126 -34 -201 -85 -250 -169 -38 -64 -44 -180 -14 -240
52 -103 167 -171 466 -277 227 -81 312 -122 375 -181 80 -74 118 -200 105
-347 -6 -72 -16 -127 -80 -424 -27 -126 -34 -272 -16 -331 42 -140 163 -212
304 -183 34 7 83 24 109 38 61 33 175 147 232 232 133 198 241 498 249 688 l2
63 -295 2 c-294 3 -295 3 -340 28 -28 16 -55 43 -75 74 l-30 49 0 456 0 456
-51 17 c-128 42 -246 60 -434 64 -160 4 -195 1 -257 -15z"/>
<path d="M3700 2440 c-90 -14 -233 -47 -270 -62 l-35 -14 0 -456 0 -455 -30
-49 c-20 -31 -47 -58 -75 -74 l-45 -25 -292 0 c-188 0 -293 -4 -294 -10 -10
-80 18 -235 67 -378 101 -290 271 -530 433 -610 55 -27 76 -32 141 -32 99 0
160 29 207 99 80 117 77 199 -23 656 -37 169 -38 327 -4 414 51 131 140 189
478 310 284 102 391 167 443 268 56 111 5 265 -115 345 -89 61 -159 76 -356
79 -96 1 -200 -1 -230 -6z"/>
<path d="M530 1639 c-159 -26 -333 -151 -418 -301 -56 -98 -76 -180 -76 -308
0 -191 55 -321 189 -449 126 -120 253 -172 420 -174 185 -2 311 50 446 183 99
97 149 186 175 312 18 84 13 223 -10 301 -61 197 -217 357 -406 418 -70 23
-237 32 -320 18z"/>
<path d="M4213 1639 c-62 -11 -175 -62 -231 -102 -107 -79 -193 -198 -234
-324 -32 -101 -30 -281 5 -381 36 -104 81 -174 162 -251 129 -122 252 -173
425 -174 117 -1 180 14 289 66 96 47 226 178 275 277 124 254 68 549 -140 739
-119 109 -229 152 -399 155 -60 2 -129 -1 -152 -5z"/>
</g>
</svg>
